<mxfile host="app.diagrams.net" modified="2023-08-11T05:45:22.883Z" agent="Mozilla/5.0 (Windows NT 10.0; Win64; x64) AppleWebKit/537.36 (KHTML, like Gecko) Chrome/114.0.0.0 Safari/537.36" etag="ROLWweoPqcmSZqxg0PeF" version="21.6.7" type="github">
  <diagram id="R2lEEEUBdFMjLlhIrx00" name="Page-1">
    <mxGraphModel dx="422" dy="1810" grid="1" gridSize="10" guides="1" tooltips="1" connect="1" arrows="0" fold="1" page="1" pageScale="1" pageWidth="1850" pageHeight="1400" math="0" shadow="0" extFonts="Permanent Marker^https://fonts.googleapis.com/css?family=Permanent+Marker">
      <root>
        <mxCell id="0" />
        <mxCell id="1" parent="0" />
        <mxCell id="4bGvBRgqeYoqNz8anIJV-3" style="edgeStyle=orthogonalEdgeStyle;rounded=0;orthogonalLoop=1;jettySize=auto;html=1;exitX=1;exitY=0.5;exitDx=0;exitDy=0;" edge="1" parent="1" source="4bGvBRgqeYoqNz8anIJV-1" target="4bGvBRgqeYoqNz8anIJV-4">
          <mxGeometry relative="1" as="geometry">
            <mxPoint x="300" y="-410" as="targetPoint" />
          </mxGeometry>
        </mxCell>
        <mxCell id="4bGvBRgqeYoqNz8anIJV-1" value="sys_user" style="rounded=0;whiteSpace=wrap;html=1;" vertex="1" parent="1">
          <mxGeometry x="80" y="-440" width="120" height="60" as="geometry" />
        </mxCell>
        <mxCell id="4bGvBRgqeYoqNz8anIJV-2" value="sys_group" style="rounded=0;whiteSpace=wrap;html=1;" vertex="1" parent="1">
          <mxGeometry x="500" y="-440" width="120" height="60" as="geometry" />
        </mxCell>
        <mxCell id="4bGvBRgqeYoqNz8anIJV-6" style="edgeStyle=orthogonalEdgeStyle;rounded=0;orthogonalLoop=1;jettySize=auto;html=1;exitX=1;exitY=0.5;exitDx=0;exitDy=0;entryX=0;entryY=0.5;entryDx=0;entryDy=0;" edge="1" parent="1" source="4bGvBRgqeYoqNz8anIJV-4" target="4bGvBRgqeYoqNz8anIJV-2">
          <mxGeometry relative="1" as="geometry" />
        </mxCell>
        <mxCell id="4bGvBRgqeYoqNz8anIJV-4" value="从属" style="rhombus;whiteSpace=wrap;html=1;" vertex="1" parent="1">
          <mxGeometry x="260" y="-435" width="100" height="50" as="geometry" />
        </mxCell>
        <mxCell id="4bGvBRgqeYoqNz8anIJV-14" style="edgeStyle=orthogonalEdgeStyle;rounded=0;orthogonalLoop=1;jettySize=auto;html=1;exitX=0.5;exitY=1;exitDx=0;exitDy=0;" edge="1" parent="1" source="4bGvBRgqeYoqNz8anIJV-7">
          <mxGeometry relative="1" as="geometry">
            <mxPoint x="560" y="-440" as="targetPoint" />
          </mxGeometry>
        </mxCell>
        <mxCell id="4bGvBRgqeYoqNz8anIJV-7" value="name" style="ellipse;whiteSpace=wrap;html=1;" vertex="1" parent="1">
          <mxGeometry x="440" y="-530" width="70" height="40" as="geometry" />
        </mxCell>
        <mxCell id="4bGvBRgqeYoqNz8anIJV-17" style="edgeStyle=orthogonalEdgeStyle;rounded=0;orthogonalLoop=1;jettySize=auto;html=1;exitX=0.5;exitY=0;exitDx=0;exitDy=0;entryX=0.5;entryY=1;entryDx=0;entryDy=0;" edge="1" parent="1" source="4bGvBRgqeYoqNz8anIJV-8" target="4bGvBRgqeYoqNz8anIJV-2">
          <mxGeometry relative="1" as="geometry" />
        </mxCell>
        <mxCell id="4bGvBRgqeYoqNz8anIJV-8" value="status" style="ellipse;whiteSpace=wrap;html=1;" vertex="1" parent="1">
          <mxGeometry x="455" y="-340" width="70" height="40" as="geometry" />
        </mxCell>
        <mxCell id="4bGvBRgqeYoqNz8anIJV-15" value="" style="edgeStyle=orthogonalEdgeStyle;rounded=0;orthogonalLoop=1;jettySize=auto;html=1;" edge="1" parent="1" source="4bGvBRgqeYoqNz8anIJV-9" target="4bGvBRgqeYoqNz8anIJV-2">
          <mxGeometry relative="1" as="geometry" />
        </mxCell>
        <mxCell id="4bGvBRgqeYoqNz8anIJV-9" value="type" style="ellipse;whiteSpace=wrap;html=1;" vertex="1" parent="1">
          <mxGeometry x="525" y="-530" width="70" height="40" as="geometry" />
        </mxCell>
        <mxCell id="4bGvBRgqeYoqNz8anIJV-16" style="edgeStyle=orthogonalEdgeStyle;rounded=0;orthogonalLoop=1;jettySize=auto;html=1;exitX=0.5;exitY=1;exitDx=0;exitDy=0;entryX=0.5;entryY=0;entryDx=0;entryDy=0;" edge="1" parent="1" source="4bGvBRgqeYoqNz8anIJV-10" target="4bGvBRgqeYoqNz8anIJV-2">
          <mxGeometry relative="1" as="geometry" />
        </mxCell>
        <mxCell id="4bGvBRgqeYoqNz8anIJV-10" value="remark" style="ellipse;whiteSpace=wrap;html=1;" vertex="1" parent="1">
          <mxGeometry x="610" y="-530" width="70" height="40" as="geometry" />
        </mxCell>
        <mxCell id="4bGvBRgqeYoqNz8anIJV-18" style="edgeStyle=orthogonalEdgeStyle;rounded=0;orthogonalLoop=1;jettySize=auto;html=1;exitX=0.5;exitY=0;exitDx=0;exitDy=0;entryX=0.5;entryY=1;entryDx=0;entryDy=0;" edge="1" parent="1" source="4bGvBRgqeYoqNz8anIJV-11" target="4bGvBRgqeYoqNz8anIJV-2">
          <mxGeometry relative="1" as="geometry" />
        </mxCell>
        <mxCell id="4bGvBRgqeYoqNz8anIJV-11" value="parent_ids" style="ellipse;whiteSpace=wrap;html=1;" vertex="1" parent="1">
          <mxGeometry x="610" y="-340" width="70" height="40" as="geometry" />
        </mxCell>
        <mxCell id="4bGvBRgqeYoqNz8anIJV-19" style="edgeStyle=orthogonalEdgeStyle;rounded=0;orthogonalLoop=1;jettySize=auto;html=1;exitX=0.5;exitY=0;exitDx=0;exitDy=0;" edge="1" parent="1" source="4bGvBRgqeYoqNz8anIJV-12">
          <mxGeometry relative="1" as="geometry">
            <mxPoint x="560" y="-380" as="targetPoint" />
            <Array as="points">
              <mxPoint x="560" y="-340" />
            </Array>
          </mxGeometry>
        </mxCell>
        <mxCell id="4bGvBRgqeYoqNz8anIJV-12" value="parent_id" style="ellipse;whiteSpace=wrap;html=1;" vertex="1" parent="1">
          <mxGeometry x="530" y="-340" width="70" height="40" as="geometry" />
        </mxCell>
        <mxCell id="4bGvBRgqeYoqNz8anIJV-24" style="edgeStyle=orthogonalEdgeStyle;rounded=0;orthogonalLoop=1;jettySize=auto;html=1;exitX=0.5;exitY=1;exitDx=0;exitDy=0;entryX=0.433;entryY=0.017;entryDx=0;entryDy=0;entryPerimeter=0;" edge="1" parent="1" source="4bGvBRgqeYoqNz8anIJV-21" target="4bGvBRgqeYoqNz8anIJV-1">
          <mxGeometry relative="1" as="geometry" />
        </mxCell>
        <mxCell id="4bGvBRgqeYoqNz8anIJV-21" value="name" style="ellipse;whiteSpace=wrap;html=1;" vertex="1" parent="1">
          <mxGeometry x="60" y="-510" width="70" height="40" as="geometry" />
        </mxCell>
        <mxCell id="4bGvBRgqeYoqNz8anIJV-26" style="edgeStyle=orthogonalEdgeStyle;rounded=0;orthogonalLoop=1;jettySize=auto;html=1;exitX=0.5;exitY=0;exitDx=0;exitDy=0;entryX=0.5;entryY=1;entryDx=0;entryDy=0;" edge="1" parent="1" source="4bGvBRgqeYoqNz8anIJV-22" target="4bGvBRgqeYoqNz8anIJV-1">
          <mxGeometry relative="1" as="geometry" />
        </mxCell>
        <mxCell id="4bGvBRgqeYoqNz8anIJV-22" value="..." style="ellipse;whiteSpace=wrap;html=1;" vertex="1" parent="1">
          <mxGeometry x="110" y="-360" width="70" height="40" as="geometry" />
        </mxCell>
        <mxCell id="4bGvBRgqeYoqNz8anIJV-25" style="edgeStyle=orthogonalEdgeStyle;rounded=0;orthogonalLoop=1;jettySize=auto;html=1;entryX=0.433;entryY=0.05;entryDx=0;entryDy=0;entryPerimeter=0;" edge="1" parent="1" source="4bGvBRgqeYoqNz8anIJV-23" target="4bGvBRgqeYoqNz8anIJV-1">
          <mxGeometry relative="1" as="geometry">
            <Array as="points">
              <mxPoint x="185" y="-450" />
              <mxPoint x="132" y="-450" />
            </Array>
          </mxGeometry>
        </mxCell>
        <mxCell id="4bGvBRgqeYoqNz8anIJV-23" value="tel" style="ellipse;whiteSpace=wrap;html=1;" vertex="1" parent="1">
          <mxGeometry x="150" y="-510" width="70" height="40" as="geometry" />
        </mxCell>
        <mxCell id="4bGvBRgqeYoqNz8anIJV-32" value="sys_user_group" style="rounded=0;whiteSpace=wrap;html=1;" vertex="1" parent="1">
          <mxGeometry x="240" y="-160" width="120" height="60" as="geometry" />
        </mxCell>
        <mxCell id="4bGvBRgqeYoqNz8anIJV-63" style="edgeStyle=orthogonalEdgeStyle;rounded=0;orthogonalLoop=1;jettySize=auto;html=1;exitX=0.5;exitY=1;exitDx=0;exitDy=0;entryX=0.5;entryY=0;entryDx=0;entryDy=0;" edge="1" parent="1" source="4bGvBRgqeYoqNz8anIJV-33" target="4bGvBRgqeYoqNz8anIJV-32">
          <mxGeometry relative="1" as="geometry" />
        </mxCell>
        <mxCell id="4bGvBRgqeYoqNz8anIJV-33" value="user_id" style="ellipse;whiteSpace=wrap;html=1;" vertex="1" parent="1">
          <mxGeometry x="220" y="-240" width="70" height="40" as="geometry" />
        </mxCell>
        <mxCell id="4bGvBRgqeYoqNz8anIJV-64" style="edgeStyle=orthogonalEdgeStyle;rounded=0;orthogonalLoop=1;jettySize=auto;html=1;exitX=0.5;exitY=1;exitDx=0;exitDy=0;" edge="1" parent="1" source="4bGvBRgqeYoqNz8anIJV-34" target="4bGvBRgqeYoqNz8anIJV-32">
          <mxGeometry relative="1" as="geometry" />
        </mxCell>
        <mxCell id="4bGvBRgqeYoqNz8anIJV-34" value="group_id" style="ellipse;whiteSpace=wrap;html=1;" vertex="1" parent="1">
          <mxGeometry x="310" y="-240" width="70" height="40" as="geometry" />
        </mxCell>
        <mxCell id="4bGvBRgqeYoqNz8anIJV-65" value="" style="ellipse;whiteSpace=wrap;html=1;" vertex="1" parent="1">
          <mxGeometry x="660" y="-430" width="70" height="40" as="geometry" />
        </mxCell>
      </root>
    </mxGraphModel>
  </diagram>
</mxfile>
